<mxfile host="app.diagrams.net" agent="Mozilla/5.0 (Windows NT 10.0; Win64; x64) AppleWebKit/537.36 (KHTML, like Gecko) Chrome/130.0.0.0 Safari/537.36" version="24.8.4">
  <diagram name="第 1 页" id="m8BHalyOimvm5vnhOM2n">
    <mxGraphModel dx="1434" dy="738" grid="1" gridSize="10" guides="1" tooltips="1" connect="1" arrows="1" fold="1" page="1" pageScale="1" pageWidth="1169" pageHeight="827" math="0" shadow="0">
      <root>
        <mxCell id="0" />
        <mxCell id="1" parent="0" />
        <mxCell id="3C009uK3lJkFP2N7-0TA-4" value="pi1" style="rounded=0;orthogonalLoop=1;jettySize=auto;html=1;entryX=0;entryY=0;entryDx=0;entryDy=0;fontSize=16;" edge="1" parent="1" source="3C009uK3lJkFP2N7-0TA-1" target="3C009uK3lJkFP2N7-0TA-3">
          <mxGeometry relative="1" as="geometry" />
        </mxCell>
        <mxCell id="3C009uK3lJkFP2N7-0TA-1" value="i1" style="ellipse;whiteSpace=wrap;html=1;fontSize=16;" vertex="1" parent="1">
          <mxGeometry x="240" y="120" width="120" height="80" as="geometry" />
        </mxCell>
        <mxCell id="3C009uK3lJkFP2N7-0TA-9" value="po1" style="rounded=0;orthogonalLoop=1;jettySize=auto;html=1;fontSize=16;" edge="1" parent="1" source="3C009uK3lJkFP2N7-0TA-3" target="3C009uK3lJkFP2N7-0TA-7">
          <mxGeometry relative="1" as="geometry" />
        </mxCell>
        <mxCell id="3C009uK3lJkFP2N7-0TA-10" value="po2" style="rounded=0;orthogonalLoop=1;jettySize=auto;html=1;fontSize=16;" edge="1" parent="1" source="3C009uK3lJkFP2N7-0TA-3" target="3C009uK3lJkFP2N7-0TA-8">
          <mxGeometry relative="1" as="geometry" />
        </mxCell>
        <mxCell id="3C009uK3lJkFP2N7-0TA-3" value="p_e_N" style="ellipse;whiteSpace=wrap;html=1;fontSize=16;" vertex="1" parent="1">
          <mxGeometry x="360" y="240" width="120" height="80" as="geometry" />
        </mxCell>
        <mxCell id="3C009uK3lJkFP2N7-0TA-6" value="pi3" style="rounded=0;orthogonalLoop=1;jettySize=auto;html=1;entryX=1;entryY=0;entryDx=0;entryDy=0;fontSize=16;" edge="1" parent="1" source="3C009uK3lJkFP2N7-0TA-5" target="3C009uK3lJkFP2N7-0TA-3">
          <mxGeometry relative="1" as="geometry" />
        </mxCell>
        <mxCell id="3C009uK3lJkFP2N7-0TA-5" value="i3" style="ellipse;whiteSpace=wrap;html=1;fontSize=16;" vertex="1" parent="1">
          <mxGeometry x="540" y="120" width="120" height="80" as="geometry" />
        </mxCell>
        <mxCell id="3C009uK3lJkFP2N7-0TA-7" value="o1" style="ellipse;whiteSpace=wrap;html=1;fontSize=16;" vertex="1" parent="1">
          <mxGeometry x="250" y="374" width="120" height="80" as="geometry" />
        </mxCell>
        <mxCell id="3C009uK3lJkFP2N7-0TA-8" value="o2" style="ellipse;whiteSpace=wrap;html=1;fontSize=16;" vertex="1" parent="1">
          <mxGeometry x="450" y="374" width="120" height="80" as="geometry" />
        </mxCell>
        <mxCell id="3C009uK3lJkFP2N7-0TA-14" value="pi2" style="rounded=0;orthogonalLoop=1;jettySize=auto;html=1;fontSize=16;" edge="1" parent="1" source="3C009uK3lJkFP2N7-0TA-13" target="3C009uK3lJkFP2N7-0TA-3">
          <mxGeometry x="-0.0083" relative="1" as="geometry">
            <mxPoint as="offset" />
          </mxGeometry>
        </mxCell>
        <mxCell id="3C009uK3lJkFP2N7-0TA-13" value="i2" style="ellipse;whiteSpace=wrap;html=1;fontSize=16;" vertex="1" parent="1">
          <mxGeometry x="390" y="90" width="120" height="80" as="geometry" />
        </mxCell>
      </root>
    </mxGraphModel>
  </diagram>
</mxfile>
